<svg width="300" height="216" viewBox="0 0 300 216" fill="none" xmlns="http://www.w3.org/2000/svg">
<g clip-path="url(#clip0_1_202)">
<path fill-rule="evenodd" clip-rule="evenodd" d="M150 196.364C232.843 196.364 300 152.406 300 98.1818V117.818C300 172.043 232.843 216 150 216C67.1571 216 0 172.043 0 117.818V98.1818C0 152.406 67.1571 196.364 150 196.364Z" fill="#12161E"/>
<path fill-rule="evenodd" clip-rule="evenodd" d="M150 196.364C232.843 196.364 300 152.406 300 98.1818V99.4091C300 153.634 232.843 197.591 150 197.591C67.1571 197.591 0 153.634 0 99.4091V98.1818C0 152.406 67.1571 196.364 150 196.364ZM0.104082 94.5C0.0348625 95.726 0.0001548 96.9538 0 98.1818V94.5H0.104082ZM299.896 94.5H300V98.1818C300 96.9496 299.966 95.7224 299.896 94.5Z" fill="white" fill-opacity="0.2"/>
<path fill-rule="evenodd" clip-rule="evenodd" d="M150 196.364C232.843 196.364 300 152.406 300 98.1818V99.4091C300 153.634 232.843 197.591 150 197.591C67.1571 197.591 0 153.634 0 99.4091V98.1818C0 152.406 67.1571 196.364 150 196.364ZM0.104082 94.5C0.0348625 95.726 0.0001548 96.9538 0 98.1818V94.5H0.104082ZM299.896 94.5H300V98.1818C300 96.9496 299.966 95.7224 299.896 94.5Z" fill="url(#paint0_linear_1_202)" fill-opacity="0.2"/>
<path opacity="0.3" fill-rule="evenodd" clip-rule="evenodd" d="M150 196.364C232.843 196.364 300 152.406 300 98.1818V117.818C300 172.043 232.843 216 150 216C67.1571 216 0 172.043 0 117.818V98.1818C0 152.406 67.1571 196.364 150 196.364Z" fill="url(#paint1_linear_1_202)"/>
<g filter="url(#filter0_d_1_202)">
<path d="M300 98.1818C300 152.406 232.843 196.364 150 196.364C67.1571 196.364 0 152.406 0 98.1818C0 43.9572 67.1571 0 150 0C232.843 0 300 43.9572 300 98.1818Z" fill="#12161E"/>
</g>
</g>
<defs>
<filter id="filter0_d_1_202" x="-32.308" y="-32.308" width="364.616" height="260.98" filterUnits="userSpaceOnUse" color-interpolation-filters="sRGB">
<feFlood flood-opacity="0" result="BackgroundImageFix"/>
<feColorMatrix in="SourceAlpha" type="matrix" values="0 0 0 0 0 0 0 0 0 0 0 0 0 0 0 0 0 0 127 0" result="hardAlpha"/>
<feOffset/>
<feGaussianBlur stdDeviation="16.154"/>
<feComposite in2="hardAlpha" operator="out"/>
<feColorMatrix type="matrix" values="0 0 0 0 1 0 0 0 0 1 0 0 0 0 1 0 0 0 0.2 0"/>
<feBlend mode="normal" in2="BackgroundImageFix" result="effect1_dropShadow_1_202"/>
<feBlend mode="normal" in="SourceGraphic" in2="effect1_dropShadow_1_202" result="shape"/>
</filter>
<linearGradient id="paint0_linear_1_202" x1="301.341" y1="203.395" x2="0" y2="203.395" gradientUnits="userSpaceOnUse">
<stop stop-color="white" stop-opacity="0"/>
<stop offset="0.681" stop-color="white"/>
<stop offset="1" stop-color="white" stop-opacity="0"/>
</linearGradient>
<linearGradient id="paint1_linear_1_202" x1="191.502" y1="95.2461" x2="25.5098" y2="95.2461" gradientUnits="userSpaceOnUse">
<stop stop-color="white" stop-opacity="0"/>
<stop offset="0.589" stop-color="white"/>
<stop offset="1" stop-color="white" stop-opacity="0"/>
</linearGradient>
<clipPath id="clip0_1_202">
<rect width="300" height="216" fill="white"/>
</clipPath>
</defs>
</svg>
