<svg width="300" height="206" viewBox="0 0 300 206" fill="none" xmlns="http://www.w3.org/2000/svg">
<g clip-path="url(#clip0_1_192)">
<path fill-rule="evenodd" clip-rule="evenodd" d="M150 196.19C232.843 196.19 300 152.272 300 98.0952V107.905C300 162.082 232.843 206 150 206C67.1571 206 0 162.082 0 107.905V98.0952C0 152.272 67.1571 196.19 150 196.19Z" fill="#4575CD"/>
<path fill-rule="evenodd" clip-rule="evenodd" d="M150 196.19C232.843 196.19 300 152.272 300 98.0952V99.3214C300 153.498 232.843 197.417 150 197.417C67.1571 197.417 0 153.498 0 99.3214V98.0952C0 152.272 67.1571 196.19 150 196.19ZM0.104082 94.4166C0.0348625 95.6416 0.0001548 96.8683 0 98.0952V94.4166H0.104082ZM299.896 94.4166H300V98.0952C300 96.8641 299.966 95.6379 299.896 94.4166Z" fill="white" fill-opacity="0.3"/>
<path opacity="0.28" fill-rule="evenodd" clip-rule="evenodd" d="M150 196.19C232.843 196.19 300 152.272 300 98.0952V107.905C300 162.082 232.843 206 150 206C67.1571 206 0 162.082 0 107.905V98.0952C0 152.272 67.1571 196.19 150 196.19Z" fill="url(#paint0_linear_1_192)"/>
<path d="M300 98.0952C300 152.272 232.843 196.19 150 196.19C67.1571 196.19 0 152.272 0 98.0952C0 43.9185 67.1571 0 150 0C232.843 0 300 43.9185 300 98.0952Z" fill="#4575CD"/>
</g>
<defs>
<linearGradient id="paint0_linear_1_192" x1="191.502" y1="95.4074" x2="25.5098" y2="95.4074" gradientUnits="userSpaceOnUse">
<stop stop-color="white" stop-opacity="0"/>
<stop offset="0.589" stop-color="white"/>
<stop offset="1" stop-color="white" stop-opacity="0"/>
</linearGradient>
<clipPath id="clip0_1_192">
<rect width="300" height="206" fill="white"/>
</clipPath>
</defs>
</svg>
