<svg width="300" height="215" viewBox="0 0 300 215" fill="none" xmlns="http://www.w3.org/2000/svg">
<g clip-path="url(#clip0_1_145)">
<path fill-rule="evenodd" clip-rule="evenodd" d="M0.0256098 98.9489H0V117.273C0 171.246 67.1573 215 150 215C232.843 215 300 171.246 300 117.273V98.9489H299.974C298.465 151.739 231.898 194.233 150 194.233C68.1024 194.233 1.53537 151.739 0.0256098 98.9489Z" fill="url(#paint0_linear_1_145)"/>
<path fill-rule="evenodd" clip-rule="evenodd" d="M0.0121951 98.9489H0C0 152.922 67.1573 196.676 150 196.676C232.843 196.676 300 152.922 300 98.9489H299.989C298.984 152.359 232.217 195.455 150 195.455C67.7829 195.455 1.01585 152.359 0.0121951 98.9489Z" fill="white" fill-opacity="0.8"/>
<path fill-rule="evenodd" clip-rule="evenodd" d="M150 195.455C232.843 195.455 300 151.701 300 97.7273V117.273C300 171.246 232.843 215 150 215C67.1573 215 0 171.246 0 117.273V97.7273C0 151.701 67.1573 195.455 150 195.455ZM0.103659 94.0625C0.0345813 95.2829 1.45607e-05 96.5049 0 97.7273V94.0625H0.103659ZM299.896 94.0625H300V97.7273C300 96.5008 299.966 95.2792 299.896 94.0625Z" fill="url(#paint1_linear_1_145)"/>
<path d="M300 97.7273C300 151.701 232.843 195.455 150 195.455C67.1573 195.455 0 151.701 0 97.7273C0 43.7537 67.1573 0 150 0C232.843 0 300 43.7537 300 97.7273Z" fill="url(#paint2_linear_1_145)"/>
</g>
<defs>
<linearGradient id="paint0_linear_1_145" x1="86.5854" y1="275.469" x2="54.6872" y2="137.103" gradientUnits="userSpaceOnUse">
<stop stop-color="white"/>
<stop offset="1" stop-color="#ECEFF7" stop-opacity="0.9"/>
</linearGradient>
<linearGradient id="paint1_linear_1_145" x1="191.501" y1="91.0501" x2="25.5098" y2="91.0501" gradientUnits="userSpaceOnUse">
<stop stop-color="white" stop-opacity="0"/>
<stop offset="0.589" stop-color="white"/>
<stop offset="1" stop-color="white" stop-opacity="0"/>
</linearGradient>
<linearGradient id="paint2_linear_1_145" x1="283.537" y1="60.4687" x2="-172.687" y2="290.476" gradientUnits="userSpaceOnUse">
<stop stop-color="white"/>
<stop offset="1" stop-color="#ECEFF7" stop-opacity="0.9"/>
</linearGradient>
<clipPath id="clip0_1_145">
<rect width="300" height="215" fill="white"/>
</clipPath>
</defs>
</svg>
