<svg width="300" height="235" viewBox="0 0 300 235" fill="none" xmlns="http://www.w3.org/2000/svg">
<g clip-path="url(#clip0_1_156)">
<path fill-rule="evenodd" clip-rule="evenodd" d="M150 194.819C232.843 194.819 300 151.207 300 97.4093V136.373C300 190.171 232.843 233.782 150 233.782C67.1573 233.782 0 190.171 0 136.373V97.4093C0 151.207 67.1573 194.819 150 194.819Z" fill="#383E4F"/>
<path opacity="0.3" fill-rule="evenodd" clip-rule="evenodd" d="M150 233.782C232.843 233.782 300 190.171 300 136.373V137.591C300 191.389 232.843 235 150 235C67.1573 235 0 191.389 0 137.591V136.373C0 190.171 67.1573 233.782 150 233.782ZM0.103659 132.72C0.0345793 133.937 1.26047e-05 135.155 0 136.373V132.72H0.103659ZM299.896 132.72H300V136.373C300 135.155 299.966 133.937 299.896 132.72Z" fill="#232730"/>
<path fill-rule="evenodd" clip-rule="evenodd" d="M150 194.819C232.843 194.819 300 151.207 300 97.4093V98.6269C300 152.425 232.843 196.036 150 196.036C67.1573 196.036 0 152.425 0 98.6269V97.4093C0 151.207 67.1573 194.819 150 194.819ZM0.103659 93.7565C0.0345813 94.9729 1.45607e-05 96.191 0 97.4093V93.7565H0.103659ZM299.896 93.7565H300V97.4093C300 96.1868 299.966 94.9692 299.896 93.7565Z" fill="white" fill-opacity="0.2"/>
<path opacity="0.28" fill-rule="evenodd" clip-rule="evenodd" d="M150 194.819C232.843 194.819 300 151.207 300 97.4093V136.373C300 190.171 232.843 233.782 150 233.782C67.1573 233.782 0 190.171 0 136.373V97.4093C0 151.207 67.1573 194.819 150 194.819Z" fill="url(#paint0_linear_1_156)"/>
<g filter="url(#filter0_d_1_156)">
<path d="M300 97.4093C300 151.207 232.843 194.819 150 194.819C67.1573 194.819 0 151.207 0 97.4093C0 43.6114 67.1573 0 150 0C232.843 0 300 43.6114 300 97.4093Z" fill="#383E4F"/>
</g>
</g>
<defs>
<filter id="filter0_d_1_156" x="-56" y="-56" width="412" height="306.819" filterUnits="userSpaceOnUse" color-interpolation-filters="sRGB">
<feFlood flood-opacity="0" result="BackgroundImageFix"/>
<feColorMatrix in="SourceAlpha" type="matrix" values="0 0 0 0 0 0 0 0 0 0 0 0 0 0 0 0 0 0 127 0" result="hardAlpha"/>
<feOffset/>
<feGaussianBlur stdDeviation="28"/>
<feComposite in2="hardAlpha" operator="out"/>
<feColorMatrix type="matrix" values="0 0 0 0 1 0 0 0 0 1 0 0 0 0 1 0 0 0 0.3 0"/>
<feBlend mode="normal" in2="BackgroundImageFix" result="effect1_dropShadow_1_156"/>
<feBlend mode="normal" in="SourceGraphic" in2="effect1_dropShadow_1_156" result="shape"/>
</filter>
<linearGradient id="paint0_linear_1_156" x1="191.501" y1="94.0122" x2="25.5098" y2="94.0122" gradientUnits="userSpaceOnUse">
<stop stop-color="white" stop-opacity="0"/>
<stop offset="0.589" stop-color="white"/>
<stop offset="1" stop-color="white" stop-opacity="0"/>
</linearGradient>
<clipPath id="clip0_1_156">
<rect width="300" height="235" fill="white"/>
</clipPath>
</defs>
</svg>
